<svg width="82" height="82" viewBox="0 0 82 82" fill="none" xmlns="http://www.w3.org/2000/svg">
<path d="M41.4782 81.1985C63.5697 81.0635 81.3713 62.9127 81.2393 40.6575C81.1072 18.4024 63.0915 0.470535 41.0001 0.605557C18.9087 0.740579 1.10704 18.8914 1.23907 41.1465C1.37111 63.4016 19.3868 81.3335 41.4782 81.1985Z" fill="url(#paint0_linear_63_72)"/>
<path fill-rule="evenodd" clip-rule="evenodd" d="M60.3665 21.8959C55.5497 17.0991 49.1579 14.4788 42.3731 14.5227C28.3888 14.6134 17.0745 26.1451 17.153 40.2289C17.18 44.7286 18.3737 49.1192 20.619 52.9779L17.1016 66.2375L30.5313 62.5996C34.247 64.6106 38.4309 65.6577 42.6736 65.6302L42.6855 65.6301C56.6698 65.5395 67.9841 54.0078 67.9055 39.918C67.8587 33.0969 65.1833 26.6928 60.3665 21.8959ZM42.6537 61.3155L42.6477 61.3156C38.8613 61.3401 35.1458 60.3377 31.8988 58.4251L31.1257 57.9706L23.1567 60.1289L25.2429 52.2795L24.7344 51.4771C22.6046 48.1131 21.4672 44.2114 21.4431 40.2011C21.373 28.4985 30.773 18.9127 42.4049 18.8374C48.0401 18.8008 53.3449 20.9806 57.3509 24.9651C61.357 28.9555 63.5814 34.2705 63.6095 39.9458C63.6797 51.6544 54.2796 61.2402 42.6537 61.3155ZM54.125 45.3366C53.489 45.0185 50.3629 43.499 49.781 43.2879C49.199 43.0769 48.7776 42.9722 48.3548 43.6194C47.9379 44.2607 46.7318 45.7068 46.3611 46.1329C45.9962 46.559 45.6232 46.6151 44.9873 46.303C44.3513 45.9848 42.303 45.3297 39.8723 43.1671C37.9778 41.4845 36.6913 39.4041 36.3201 38.7679C35.9489 38.1318 36.2727 37.7835 36.5908 37.4652C36.8735 37.1769 37.2204 36.7151 37.5322 36.343C37.844 35.971 37.9491 35.7018 38.1599 35.2767C38.3706 34.8516 38.2617 34.4763 38.0998 34.1611C37.9379 33.8399 36.651 30.7091 36.116 29.4354C35.593 28.1915 35.0726 28.3679 34.6814 28.3466C34.3139 28.3311 33.8872 28.3279 33.4665 28.3306C33.0458 28.3333 32.3594 28.4989 31.7825 29.1412C31.2056 29.7835 29.5794 31.3397 29.5982 34.4788C29.6171 37.6178 31.9048 40.6406 32.2273 41.0623C32.5439 41.4839 36.7364 47.9081 43.117 50.6299C44.6319 51.2766 45.8194 51.6628 46.7396 51.9492C48.2595 52.4228 49.6457 52.3481 50.735 52.174C51.9545 51.9811 54.4766 50.604 54.995 49.1087C55.5134 47.6134 55.5058 46.3363 55.3442 46.0688C55.1886 45.8131 54.761 45.6548 54.125 45.3366Z" fill="white"/>
<defs>
<linearGradient id="paint0_linear_63_72" x1="41.4435" y1="75.3434" x2="40.9509" y2="-5.2494" gradientUnits="userSpaceOnUse">
<stop stop-color="#78CD51"/>
<stop offset="1" stop-color="#A0FC84"/>
</linearGradient>
</defs>
</svg>
